# xmcd
#
# Track frame offsets:
#	150
#	35582
#	50605
#	76949
#	101254
#	129544
#
# Disc length: 2149 seconds
#
# Revision: 1
# Processed by: cddbd v1.5.2PL0 Copyright (c) Steve Scherf et al.
# Submitted via: audiograbber 1.83.01
#
DISCID=44086306
DTITLE=Jake Green Band - Live @ Malmö Festival 2011
DYEAR=2011
DGENRE=Blues
TTITLE0=Bad Bad Feeling
TTITLE1=Blues Don't Bother Me
TTITLE2=When The Morning Comes
TTITLE3=Borderline
TTITLE4=Ain't Gonna Fall In Love Again
TTITLE5=Broken Love
EXTD=
EXTT0=
EXTT1=
EXTT2=
EXTT3=
EXTT4=
EXTT5=
PLAYORDER=
